<svg width="360" height="70" xmlns="http://www.w3.org/2000/svg" version="1.1">
 <g id="Layer_1">
  <title>Layer 1</title>
  <path stroke="null" id="svg_1" d="m6.18408,50.20649q0.20801,-5.20836 0.36402,-10.67391t0.29467,-10.78645t0.20801,-10.33633t0.06934,-9.35575q0.06933,-0.86805 1.62939,-1.38246t3.72681,-0.75554t4.57617,-0.30542t4.28149,-0.0643q0.41602,0 1.7334,-0.03215l0.65869,0q1.00538,0 2.11475,0.0643q1.45606,0.09645 2.5481,0.41795t1.09204,0.93236q0,0.4501 -0.38135,0.72338t-0.88403,0.40188t-1.04004,0.16075t-0.74536,0.03215q-3.25879,0 -6.44825,-0.09645q-0.8667,-0.03215 -1.76806,-0.03215q-2.35742,0 -4.78418,0.1929q0.13867,0.3858 0.22534,2.33089t0.08667,4.38852t-0.03467,4.77432t0,3.58476l0,8.35909q1.07471,-0.0643 2.11475,-0.0643l2.08008,0l1.38671,-0.0643q0.69336,-0.03215 1.45606,-0.03215q0.79736,0 1.62939,0.03215q1.66407,0.0643 3.03345,0.36973t1.36939,1.07704q0,0.5787 -0.52002,0.85198t-1.16138,0.40188t-1.21338,0.1286l-0.64136,0q-1.97607,0 -4.10815,-0.1286t-3.96948,-0.1286q-0.34668,0.1286 -0.74537,0.09645t-0.71069,-0.03214q0,4.82255 -0.104,9.59687t-0.24268,9.50043q0,0.93236 -1.26538,1.22171t-2.40942,0.28935q-1.28272,0 -2.02808,-0.28935t-1.05737,-0.94843t-0.38135,-1.7522q-0.03467,-0.61086 -0.06934,-1.35031q0,-0.61086 0.03467,-1.31817zm28.27762,1.92902q0.06934,-1.35032 0.06934,-2.63633q0,-4.6618 0.36401,-9.29146t0.50269,-9.29145q0.20801,-5.33695 0.38135,-10.57746t0.69336,-10.54532q0.13867,-1.31816 0.81469,-1.72004t2.02808,-0.40188q0.62402,0 1.66406,0.22505t1.04004,1.09312q0.48535,0.0643 0.9707,0.0643q0.72803,0 1.49073,-0.1286q1.24804,-0.1929 2.54809,-0.43403t2.58277,-0.46617t2.46142,-0.22506q0.27735,0 0.78003,0.03215t1.00537,0.1929t0.84937,0.40188t0.34668,0.62693t-0.8147,0.69123t-2.13208,0.53048t-2.84277,0.38581t-2.98145,0.27328t-2.58276,0.17682t-1.61206,0.0643l-0.06934,12.08852l0.06934,6.01211q1.0747,0 3.22412,-0.0643q0.8667,-0.03215 1.7334,-0.03215q1.31738,0 2.7041,0.0643q2.28808,0.09645 4.12549,0.3858t2.32275,1.02882q0,0.4501 -0.50269,0.72338t-1.1267,0.40188t-1.26538,0.16075t-0.91871,0.03214q-2.56543,0 -5.16552,-0.09645t-5.13086,-0.38581q0,3.95449 -0.22534,7.84469t-0.22535,7.84468q0,1.70397 0.03467,3.35971t0.41602,3.29541q0.93603,-0.0643 2.02807,-0.16075t2.21875,-0.24113t2.16675,-0.24113t1.80274,-0.09645q0.41601,0 1.1267,0.09645t1.45606,0.3215t1.28271,0.56263t0.53736,0.78769q0,0.5144 -1.02271,0.91628t-2.61743,0.64301t-3.48413,0.33758t-3.65747,0.1286t-3.18945,0.03215l-2.01075,0q-1.90673,0 -2.79077,-0.65909t-1.23071,-1.72004q-0.27734,-0.86806 -0.24268,-1.96117l0,-0.4501zm28.83231,-6.78372q0,-6.97663 0.67603,-13.96932t2.82544,-13.77643q0.62402,-2.02547 1.62939,-4.00272t2.46143,-3.52046t3.4668,-2.50773t4.78418,-0.9645l0.72802,0.0643q2.98145,0.38581 4.40283,2.23445t1.42139,4.61357q0,0.73945 -0.19067,1.84865t-0.60669,2.138t-1.12671,1.75219t-1.7854,0.72338q-0.48535,-0.0643 -0.88403,-0.16075t-0.74537,-0.41795q0.55469,-1.12526 0.98804,-2.34697t0.43335,-2.79709q0,-0.5787 -0.104,-1.47891t-0.39868,-1.78435t-0.78003,-1.54321t-1.35205,-0.65908q-2.18409,0 -3.67481,2.2666t-2.49609,5.78706t-1.49073,7.78039t-0.74536,8.23049t-0.29467,7.16953t-0.03467,4.51712q0,1.54321 -0.03467,3.40793l0,0.41796q0.03467,1.63966 0.24268,3.11858q0.27734,1.67181 1.0747,2.89353t2.4961,1.41461q0.52002,0.0643 1.00537,0.0643q2.01074,0 3.64013,-1.06096q2.01075,-1.31817 3.5708,-3.42401t2.77344,-4.62965t2.23609,-4.77432t1.9934,-3.72944t2.01075,-1.47892q0.34668,0 1.04004,0.1286t0.69335,0.61086q0,0.12861 -0.06933,0.35366t-0.17334,0.35366q-0.93604,3.40793 -2.37476,7.07307t-3.6748,6.6712t-5.47754,4.90292t-7.78296,1.89687q-3.25879,0 -5.28686,-1.14133t-3.12012,-3.05429t-1.49072,-4.32422t-0.39869,-4.88685zm36.73661,9.5165q0,-0.1929 0.13867,-1.36639t0.36402,-2.86138t0.50268,-3.63299t0.48535,-3.68121t0.36402,-3.05429t0.156,-1.76827q-0.27734,-0.1286 -0.67602,-0.36973t-0.39868,-0.56263q0,-0.4501 0.46801,-0.72338t0.8147,-0.40188q0.13867,-1.63967 0.34668,-4.56535t0.64136,-6.31755t1.21338,-6.88017t2.06274,-6.33362t3.08545,-4.64572t4.4375,-1.80042t4.36816,1.54321t2.82544,4.0188t1.66407,5.49771t0.86669,6.01211t0.36402,5.59416t0.13867,4.17954q0.06934,0.99666 0.52002,1.33424t0.98804,0.46618t0.9707,0.28935t0.43335,0.80376q0,0.73945 -0.9707,1.02882t-1.52539,0.35365q0.34668,4.0188 0.95337,7.90898t1.61206,7.84469q0.13867,0.73945 0.38134,1.49499t0.24268,1.46284q0,0.51441 -0.38135,0.85198t-0.98804,0.53048t-1.21337,0.25721t-1.02271,0.0643q-1.56006,0 -2.63477,-0.54655t-1.42138,-2.08977q-0.93604,-4.1474 -1.8374,-8.71274q-0.7627,-3.95449 -0.7627,-7.68393q0,-0.57871 0.03467,-1.15742q-2.91211,0 -5.85889,0.1286t-5.65088,0.96451q-0.06933,0.86806 -0.34668,3.27933t-0.62402,5.17621t-0.71069,5.28873t-0.43335,3.58476q-0.06934,0.4501 -0.7107,0.85198t-1.38672,0.43402t-1.31738,-0.43402t-0.57202,-1.65574zm6.48291,-19.48311q2.7041,-0.57871 5.42554,-0.67516t5.49487,-0.22506q-0.13867,-0.80375 -0.06934,-1.65574t0.06934,-1.72004q0,-1.89687 -0.104,-4.4046t-0.31202,-5.07976t-0.53735,-5.06368t-0.74536,-4.43675t-0.88403,-3.10251t-1.02271,-1.15741q-1.07471,0.0643 -2.02807,1.72004t-1.7334,4.2117t-1.42139,5.72276t-1.07471,6.18894t-0.71069,5.62631t-0.34668,4.05095zm28.45096,-20.54407q0,-1.51107 0.08667,-2.98999t0.29468,-2.92568q0.13867,-0.73945 1.23071,-1.06096t1.82007,-0.3215l0.83203,0.0643q1.00537,0.1286 2.02808,-0.1286t2.02807,-0.2572q2.35743,0 5.26954,0.48226t5.4602,1.63966t4.2815,3.03821t1.73339,4.64572t-1.80273,5.16013t-4.5415,4.21169t-5.89356,2.84531t-5.78955,1.02881q0.27734,6.20502 0.78003,12.31358t1.71606,12.21713l0.06934,0.41795q0,0.45011 -0.43335,0.73946t-1.02271,0.46617t-1.19604,0.24113t-0.98804,0.0643q-0.8667,0 -2.09741,-0.30543t-1.50806,-1.20564q-0.79736,-2.82923 -1.24804,-6.22109t-0.65869,-7.08914t-0.29468,-7.44281t-0.08667,-7.3142l0,-7.23383q0,-1.18956 -0.03467,-2.47557t-0.03467,-2.60417zm6.55225,-5.20836q0,4.40461 0.104,8.79312t0.24268,8.79312q2.04541,-0.3858 4.17749,-1.36639t3.84814,-2.33089t2.77344,-3.07036t1.05737,-3.61692q0,-1.70397 -0.9187,-3.05429t-2.37475,-2.31482q-1.42139,-0.93236 -3.22412,-1.44677q-1.59473,-0.4501 -3.12012,-0.4501l-0.38135,0l-2.18408,0.0643zm39.20392,0.59478q-0.08667,-0.98058 0.13868,-1.70397t0.90136,-1.18957t2.16675,-0.46617l5.58154,0q1.14405,0 2.99878,0.11253t3.98682,0.33758t4.24683,0.69123t3.86547,1.15742t2.84278,1.70397t1.09204,2.39521q0,1.96117 -1.23071,3.68121t-3.08545,3.10251t-3.91748,2.4595t-3.69214,1.94509q6.44824,1.31817 10.08838,5.46555t3.64013,10.35242q0,3.27933 -1.35205,6.47829t-3.69214,5.771t-5.54687,4.14739t-6.88159,1.57537q-0.48535,0 -1.09204,-0.09645t-1.10938,-0.30543t-0.8667,-0.59477t-0.36401,-0.99666q0,-2.82923 3.29346,-2.82923q0.55468,0 1.30004,0.14467t1.16138,0.59478q1.90674,-0.73945 3.48413,-2.34697t2.66944,-3.58476t1.69873,-4.1474t0.60669,-3.93841q0,-2.12193 -0.67603,-4.32422t-1.95874,-4.0831t-3.15479,-3.1668t-4.29882,-1.60752q-0.62403,-0.0643 -1.36939,-0.09645l-1.49072,-0.0643t-1.45606,-0.1929t-1.23071,-0.51441q0.27735,5.33696 0.71069,10.64177t1.16138,10.64177q0.27735,0.2572 0.38135,0.75554t0.17334,1.06096t0.06934,1.07704l0,0.86805q0,0.57871 -0.41602,0.94844t-0.98804,0.59477t-1.21338,0.28936t-1.12671,0.0643q-1.56005,0 -2.39209,-0.3858t-1.17871,-1.12526t-0.45068,-1.68789t-0.17334,-2.07369q-0.93603,-8.96995 -1.35205,-17.74699t-0.41602,-17.74699q0,-1.06096 -0.08667,-2.04155zm6.39624,-1.36639q0,3.95449 0.27735,7.92507t0.48535,7.92506q1.56006,-0.86805 4.09082,-2.04154t4.90552,-2.58811t4.07348,-3.11858t1.69873,-3.69728q0,-1.57538 -2.01074,-2.39521t-4.68017,-1.22171t-5.21753,-0.49833t-3.62281,-0.28936zm30.28837,36.07269q0,-2.25052 0.53735,-5.3048t1.82007,-5.78706t3.38013,-4.64573t5.28686,-1.91294q2.98145,0 4.47217,1.59144t1.49072,4.29208q0,1.76827 -0.71069,3.87412t-2.02808,3.98664t-3.12011,3.13465t-4.02149,1.25386l-0.90137,-0.0643q0,0.86805 0.27735,2.3309t0.8147,2.90961t1.38671,2.53988t2.06275,1.09311q1.76807,0 3.39746,-1.31817t3.08545,-2.92568t2.7041,-2.92569t2.28809,-1.31817q0.55468,0 1.14404,0.16075t0.65869,0.90022q0,0.4501 -0.26001,0.73945t-0.46802,0.64301q-1.0747,1.70397 -2.34008,3.24718t-2.86011,2.79709t-3.48413,1.97725t-4.17749,0.72338q-2.98145,0 -4.95752,-0.98059t-3.18946,-2.63633t-1.75073,-3.82589t-0.53735,-4.54928zm6.20556,-2.44342l0.97071,0.80376q0.69336,0.5787 1.38672,0.2572t1.24804,-1.17349t1.02271,-2.10585t0.83203,-2.57203t0.53735,-2.57203t0.17334,-2.08977l0,-1.09311t-0.104,-1.15742t-0.36401,-0.91629t-0.8147,-0.46617q-0.17334,-0.03215 -0.31201,-0.03215q-1.17871,0 -2.01075,1.38246q-0.90136,1.54321 -1.45605,3.74552t-0.79736,4.51712t-0.31202,3.47224zm22.76542,1.12526q0,-2.18622 0.64136,-4.2117t1.92407,-3.61691t3.20679,-2.53988t4.45483,-0.94844q1.56006,0 3.44946,0.43403t3.55347,1.28601t2.77344,2.17015t1.10937,3.02213q0,0.80376 -0.29467,1.22171t-1.19605,0.41795l-0.38135,-0.0643q1.00537,2.50773 1.7334,5.14405t1.42139,5.27266q0.27734,0.51441 0.41601,0.91629t0.13868,0.78768q0,0.51441 -0.31202,0.85198t-0.81469,0.49834t-1.04004,0.22505t-0.95337,0.0643q-1.49072,0 -2.23609,-0.48226t-1.0747,-1.31817t-0.39868,-1.8808t-0.27735,-2.10585q-0.41601,1.25386 -1.09204,2.44343t-1.59473,2.138t-2.16674,1.51106t-2.80811,0.56263q-2.28809,0 -3.84814,-1.22171t-2.51343,-3.00606t-1.38672,-3.80981t-0.43335,-3.76159zm4.92285,-0.4501q0,1.18956 0.17334,2.50773t0.57202,2.60417t1.02271,2.42735t1.56006,2.0094q1.69873,-1.70397 2.51342,-4.1474t1.45606,-4.71002t1.45605,-3.8902t2.51343,-1.62359q1.07471,0 1.80274,0.35366q-0.34668,-0.80376 -1.14405,-1.5593t-1.7854,-1.38246t-2.04541,-1.02882t-1.99341,-0.40188q-0.27734,0 -0.64135,0.08038t-0.57202,0.01608q-1.42139,0.3858 -2.34009,1.33424t-1.49073,2.23445t-0.81469,2.63633t-0.24268,2.53988zm23.70145,-2.37913q0,-0.64301 0.15601,-1.70398t0.36401,-2.10585t0.48535,-1.94509t0.65869,-1.15742q0.27735,-0.2572 0.95337,-0.5144t1.42139,-0.36974t1.38672,0.09646t0.78003,0.85198q-0.48535,0.5787 -0.88404,1.97725t-0.60668,3.10251q-0.17334,1.44677 -0.17334,2.98998l0,0.54655q0.03466,1.80042 0.34668,3.31149t0.95336,2.49164t1.7854,0.98059q2.42676,0 4.4375,-2.0737t3.57081,-5.06367t2.73877,-6.3497t2.01074,-5.86743q0.20801,-0.73945 0.98803,-0.99666t1.6814,-0.17682t1.61206,0.40188t0.84937,0.77161q-0.69336,5.40126 -1.09204,10.80252t-0.39869,10.86681q0,1.06096 0.10401,1.94509t-0.10401,1.51107t-0.9187,0.99665t-2.27075,0.36974q-0.34668,0 -0.88403,-0.0643t-1.10938,-0.20898t-0.9707,-0.43403t-0.39868,-0.67516q0,-2.37913 0.19067,-4.88685t0.53736,-4.8547q-0.93604,1.25386 -2.06275,2.49165t-2.47876,2.23445t-2.91211,1.59144t-3.36279,0.59478q-2.56543,0 -4.03882,-1.12526t-2.21875,-2.81315t-0.93603,-3.68122t-0.19068,-3.85804zm31.18973,-17.58624q0,-0.4501 1.04004,-0.77161t2.35742,-0.53049t2.5481,-0.30542t1.6814,-0.16075q0,-0.86806 0.06933,-1.7522t0.38135,-1.57537t0.98804,-1.10918t1.8894,-0.41795q1.00537,0 1.52539,0.22505t1.10938,0.93236q0.13867,0.38581 0.13867,0.73946l0,1.07703t-0.06934,1.10919q1.28272,-0.1286 2.5481,-0.30543t2.54809,-0.17682q0.93604,0 1.28272,0.03215t0.69336,0.77161q0.27734,0.73945 -0.67603,1.12526t-2.28808,0.5787t-2.6521,0.28935t-1.59473,0.09646q-0.41601,5.52986 -0.84936,10.96326t-0.43335,11.02757q0,2.50773 0.17334,5.1762t0.9707,5.0476q0.20801,0.73945 0.69336,1.38246t0.48535,1.38247q0,0.4501 -0.38135,0.7073t-0.9187,0.43403t-1.07471,0.20898t-0.88403,0.03215q-2.18408,0 -3.32812,-1.51107t-1.64673,-3.61691t-0.53736,-4.32422t-0.03466,-3.60085q0,-2.82923 0.12133,-5.78706t0.29468,-5.85136t0.48535,-5.65846t0.72803,-5.14406q-1.21338,0.1286 -2.37476,0.28935t-2.37475,0.16075q-0.27734,0 -0.74536,-0.03215t-0.88404,-0.16075t-0.71069,-0.35365t-0.29468,-0.64301zm26.50956,13.24594q0,-0.93236 0.57202,-1.22171t1.43872,-0.28935q1.42139,0 2.16675,0.49833t0.74536,1.75219q0,1.51107 0.24268,3.77767t0.71069,4.4046t1.10937,3.68121t1.33472,1.54322q1.28272,0 2.27075,-1.83258t1.7334,-4.50104t1.28272,-5.73884t0.74536,-5.48163q0.13867,-1.31817 0.67602,-1.91295t1.95874,-0.59478q1.6294,0 2.37476,1.25387t0.95337,3.08643q0.17334,1.57537 0.17334,3.27933l0,0.54656l0,1.28601q0,1.22171 0.03467,2.18622l1.00537,19.70816l0.13867,3.27934q0.06934,0.4501 0.104,0.85198t0.03467,0.85198q0,1.83257 -0.84936,2.36305t-2.75611,0.53049q-0.41601,0 -1.05737,-0.0643t-1.24805,-0.2572t-1.04004,-0.53048t-0.43335,-0.85199l0.13868,-0.3215q0.17334,-1.92901 0.17334,-4.05094l0,-0.67516q-0.03467,-2.50773 -0.17334,-5.07976t-0.31202,-5.14405t-0.17334,-4.95116q-0.48535,0.99666 -1.1267,2.05762t-1.49073,1.91295t-1.92407,1.41461t-2.42676,0.56263q-1.97607,0 -3.25879,-0.96451t-1.9934,-2.50773t-1.02271,-3.45617t-0.41602,-3.82589t-0.13867,-3.64906t-0.27734,-2.92569z" fill="#000000"/>
 </g>
</svg>